<svg width="1164" height="925" xmlns="http://www.w3.org/2000/svg" xmlns:xlink="http://www.w3.org/1999/xlink" xml:space="preserve" overflow="hidden"><defs><filter id="fx0" x="-10%" y="-10%" width="120%" height="120%" filterUnits="userSpaceOnUse" primitiveUnits="userSpaceOnUse"><feComponentTransfer color-interpolation-filters="sRGB"><feFuncR type="discrete" tableValues="0.607843 0.607843"/><feFuncG type="discrete" tableValues="0.141176 0.141176"/><feFuncB type="discrete" tableValues="0 0"/><feFuncA type="linear" slope="0.4" intercept="0"/></feComponentTransfer><feGaussianBlur stdDeviation="6.11111 6.11111"/></filter><filter id="fx1" x="-10%" y="-10%" width="120%" height="120%" filterUnits="userSpaceOnUse" primitiveUnits="userSpaceOnUse"><feComponentTransfer color-interpolation-filters="sRGB"><feFuncR type="discrete" tableValues="0.607843 0.607843"/><feFuncG type="discrete" tableValues="0.141176 0.141176"/><feFuncB type="discrete" tableValues="0 0"/><feFuncA type="linear" slope="0.4" intercept="0"/></feComponentTransfer><feGaussianBlur stdDeviation="6.11111 6.11111"/></filter><filter id="fx2" x="-10%" y="-10%" width="120%" height="120%" filterUnits="userSpaceOnUse" primitiveUnits="userSpaceOnUse"><feComponentTransfer color-interpolation-filters="sRGB"><feFuncR type="discrete" tableValues="0.607843 0.607843"/><feFuncG type="discrete" tableValues="0.141176 0.141176"/><feFuncB type="discrete" tableValues="0 0"/><feFuncA type="linear" slope="0.4" intercept="0"/></feComponentTransfer><feGaussianBlur stdDeviation="6.11111 6.11111"/></filter><filter id="fx3" x="-10%" y="-10%" width="120%" height="120%" filterUnits="userSpaceOnUse" primitiveUnits="userSpaceOnUse"><feComponentTransfer color-interpolation-filters="sRGB"><feFuncR type="discrete" tableValues="0.607843 0.607843"/><feFuncG type="discrete" tableValues="0.141176 0.141176"/><feFuncB type="discrete" tableValues="0 0"/><feFuncA type="linear" slope="0.4" intercept="0"/></feComponentTransfer><feGaussianBlur stdDeviation="6.11111 6.11111"/></filter><clipPath id="clip4"><rect x="1618" y="775" width="1164" height="925"/></clipPath><linearGradient x1="2003.76" y1="1307.08" x2="2003.76" y2="1343.08" gradientUnits="userSpaceOnUse" spreadMethod="reflect" id="fill5"><stop offset="0" stop-color="#FFC2AF"/><stop offset="0.7" stop-color="#FF6637"/><stop offset="1" stop-color="#FF6637"/></linearGradient><linearGradient x1="2294.76" y1="1281.08" x2="2294.76" y2="1317.08" gradientUnits="userSpaceOnUse" spreadMethod="reflect" id="fill6"><stop offset="0" stop-color="#FFC2AF"/><stop offset="0.7" stop-color="#FF6637"/><stop offset="1" stop-color="#FF6637"/></linearGradient><linearGradient x1="2585.76" y1="901.083" x2="2585.76" y2="937.082" gradientUnits="userSpaceOnUse" spreadMethod="reflect" id="fill7"><stop offset="0" stop-color="#FFC2AF"/><stop offset="0.7" stop-color="#FF6637"/><stop offset="1" stop-color="#FF6637"/></linearGradient></defs><g clip-path="url(#clip4)" transform="translate(-1618 -775)"><rect x="1618" y="775" width="1164" height="925" fill="#FFFFFF"/><g><path d="M2149.57 825.5 2149.57 1502.5M2440.58 825.5 2440.58 1502.5M2731.5 825.5 2731.5 1502.5" stroke="#D9D9D9" stroke-width="3.4375" stroke-linejoin="round" stroke-miterlimit="10" fill="none"/></g><g><path d="M0 0 0.000360892 677" stroke="#D9D9D9" stroke-width="3.4375" stroke-linejoin="round" stroke-miterlimit="10" fill="none" fill-rule="evenodd" transform="matrix(1 0 0 -1 1858.5 1502.5)"/></g><g><path d="M1858.5 1502.5 2731.5 1502.5" stroke="#D9D9D9" stroke-width="3.4375" stroke-linejoin="round" stroke-miterlimit="10" fill="none" fill-rule="evenodd"/></g><g><g filter="url(#fx0)" transform="translate(1970 905)"><g><path d="M24.2773 430.311C121.277 421.527 218.277 471.723 315.277 403.958 412.277 336.193 509.277 150.468 606.277 23.7225" stroke="#FF6637" stroke-width="8" stroke-linecap="round" stroke-linejoin="round" stroke-miterlimit="10" fill="none"/></g></g></g><g><g filter="url(#fx1)" transform="translate(1951 1292)"><g><path d="M61.0368 42.8055C61.0368 52.7463 52.9781 60.805 43.0373 60.805 33.0964 60.805 25.0378 52.7463 25.0378 42.8055 25.0378 32.8646 33.0964 24.806 43.0373 24.806 52.9781 24.806 61.0368 32.8646 61.0368 42.8055Z" stroke="#FFFFFF" stroke-width="9.16667" stroke-linejoin="round" stroke-miterlimit="10" fill="#FF0000"/></g></g><g filter="url(#fx2)" transform="translate(2242 1266)"><g><path d="M61.0369 42.8054C61.0369 52.7462 52.9783 60.8049 43.0374 60.8049 33.0966 60.8049 25.0379 52.7462 25.0379 42.8054 25.0379 32.8645 33.0966 24.8059 43.0374 24.8059 52.9783 24.8059 61.0369 32.8645 61.0369 42.8054Z" stroke="#FFFFFF" stroke-width="9.16667" stroke-linejoin="round" stroke-miterlimit="10" fill="#FF0000"/></g></g><g filter="url(#fx3)" transform="translate(2533 886)"><g><path d="M61.0372 42.8055C61.0372 52.7464 52.9785 60.8051 43.0377 60.8051 33.0968 60.8051 25.0382 52.7464 25.0382 42.8055 25.0382 32.8647 33.0968 24.806 43.0377 24.806 52.9785 24.806 61.0372 32.8647 61.0372 42.8055Z" stroke="#FFFFFF" stroke-width="9.16667" stroke-linejoin="round" stroke-miterlimit="10" fill="#FF0000"/></g></g></g><g><path d="M2004 1325.59C2101 1316.8 2198 1367 2295 1299.24 2392 1231.47 2489 1045.74 2586 919" stroke="#FF6637" stroke-width="8.02083" stroke-linecap="round" stroke-linejoin="round" stroke-miterlimit="10" fill="none"/></g><g><path d="M2021.76 1325.08C2021.76 1335.02 2013.7 1343.08 2003.76 1343.08 1993.82 1343.08 1985.76 1335.02 1985.76 1325.08 1985.76 1315.14 1993.82 1307.08 2003.76 1307.08 2013.7 1307.08 2021.76 1315.14 2021.76 1325.08Z" stroke="#FFFFFF" stroke-width="9.16667" stroke-linejoin="round" stroke-miterlimit="10" fill="url(#fill5)"/><path d="M2312.76 1299.08C2312.76 1309.02 2304.7 1317.08 2294.76 1317.08 2284.82 1317.08 2276.76 1309.02 2276.76 1299.08 2276.76 1289.14 2284.82 1281.08 2294.76 1281.08 2304.7 1281.08 2312.76 1289.14 2312.76 1299.08Z" stroke="#FFFFFF" stroke-width="9.16667" stroke-linejoin="round" stroke-miterlimit="10" fill="url(#fill6)"/><path d="M2603.76 919.083C2603.76 929.024 2595.7 937.082 2585.76 937.082 2575.82 937.082 2567.76 929.024 2567.76 919.083 2567.76 909.142 2575.82 901.083 2585.76 901.083 2595.7 901.083 2603.76 909.142 2603.76 919.083Z" stroke="#FFFFFF" stroke-width="9.16667" stroke-linejoin="round" stroke-miterlimit="10" fill="url(#fill7)"/></g><g><text fill="#7F7F7F" font-family="Arial,Arial_MSFontService,sans-serif" font-weight="400" font-size="46" transform="matrix(1 0 0 1 1971.98 1277)">4.7</text></g><g><text fill="#7F7F7F" font-family="Arial,Arial_MSFontService,sans-serif" font-weight="400" font-size="46" transform="matrix(1 0 0 1 2262.98 1251)">5.4</text></g><g><text fill="#7F7F7F" font-family="Arial,Arial_MSFontService,sans-serif" font-weight="400" font-size="46" transform="matrix(1 0 0 1 2541.23 870)">15.5</text></g><g><text fill="#7F7F7F" font-family="Arial,Arial_MSFontService,sans-serif" font-weight="400" font-size="46" transform="matrix(1 0 0 1 1793.41 1518)">0</text></g><g><text fill="#7F7F7F" font-family="Arial,Arial_MSFontService,sans-serif" font-weight="400" font-size="46" transform="matrix(1 0 0 1 1793.41 1442)">2</text></g><g><text fill="#7F7F7F" font-family="Arial,Arial_MSFontService,sans-serif" font-weight="400" font-size="46" transform="matrix(1 0 0 1 1793.41 1367)">4</text></g><g><text fill="#7F7F7F" font-family="Arial,Arial_MSFontService,sans-serif" font-weight="400" font-size="46" transform="matrix(1 0 0 1 1793.41 1292)">6</text></g><g><text fill="#7F7F7F" font-family="Arial,Arial_MSFontService,sans-serif" font-weight="400" font-size="46" transform="matrix(1 0 0 1 1793.41 1216)">8</text></g><g><text fill="#7F7F7F" font-family="Arial,Arial_MSFontService,sans-serif" font-weight="400" font-size="46" transform="matrix(1 0 0 1 1767.93 1141)">10</text></g><g><text fill="#7F7F7F" font-family="Arial,Arial_MSFontService,sans-serif" font-weight="400" font-size="46" transform="matrix(1 0 0 1 1767.93 1066)">12</text></g><g><text fill="#7F7F7F" font-family="Arial,Arial_MSFontService,sans-serif" font-weight="400" font-size="46" transform="matrix(1 0 0 1 1767.93 991)">14</text></g><g><text fill="#7F7F7F" font-family="Arial,Arial_MSFontService,sans-serif" font-weight="400" font-size="46" transform="matrix(1 0 0 1 1767.93 915)">16</text></g><g><text fill="#7F7F7F" font-family="Arial,Arial_MSFontService,sans-serif" font-weight="400" font-size="46" transform="matrix(1 0 0 1 1767.93 840)">18</text></g><g><text fill="#7F7F7F" font-family="Arial,Arial_MSFontService,sans-serif" font-weight="400" font-size="46" transform="matrix(1 0 0 1 1941.87 1573)">2022</text></g><g><text fill="#7F7F7F" font-family="Arial,Arial_MSFontService,sans-serif" font-weight="400" font-size="46" transform="matrix(1 0 0 1 2232.86 1573)">2023</text></g><g><text fill="#7F7F7F" font-family="Arial,Arial_MSFontService,sans-serif" font-weight="400" font-size="46" transform="matrix(1 0 0 1 2523.86 1573)">2028</text></g><g><text fill="#595959" font-family="Microsoft YaHei,Microsoft YaHei_MSFontService,sans-serif" font-weight="400" font-size="46" transform="matrix(6.12323e-17 -1 1 6.12323e-17 1733.55 1347)">金额（十亿美元）</text></g><g><text fill="#595959" font-family="Microsoft YaHei,Microsoft YaHei_MSFontService,sans-serif" font-weight="400" font-size="46" transform="matrix(1 0 0 1 2222.14 1657)">年份</text></g></g></svg>